<svg width="64" height="64" viewBox="0 0 64 64" fill="none" xmlns="http://www.w3.org/2000/svg">
<g clip-path="url(#clip0)">
<path d="M41.2389 0.36963C40.9454 0.0605472 40.5431 -0.125 40.1261 -0.125H15.1597C10.5528 -0.125 6.75006 3.6626 6.75006 8.26906V55.4806C6.75006 60.0875 10.5528 63.8751 15.1597 63.8751H49.0456C53.6525 63.8751 57.4552 60.0875 57.4552 55.4806V17.9927C57.4552 17.5909 57.2697 17.2046 57.007 16.9107L41.2389 0.36963ZM41.6871 5.33204L52.2458 16.416H45.382C43.3414 16.416 41.6871 14.7774 41.6871 12.7368V5.33204ZM49.0456 60.7833H15.1597C12.2691 60.7833 9.84186 58.3873 9.84186 55.4806V8.26906C9.84186 5.37843 12.2535 2.9668 15.1597 2.9668H38.5953V12.7368C38.5953 16.4932 41.6256 19.5078 45.382 19.5078H54.3634V55.4806C54.3634 58.3873 51.9518 60.7833 49.0456 60.7833Z" fill="#0353FF"/>
<path d="M44.8252 50.1168H19.3799C18.5298 50.1168 17.834 50.8121 17.834 51.6627C17.834 52.5128 18.5298 53.2086 19.3799 53.2086H44.8409C45.691 53.2086 46.3868 52.5128 46.3868 51.6627C46.3868 50.8121 45.691 50.1168 44.8252 50.1168Z" fill="#0353FF"/>
<path d="M30.9741 44.5669C31.268 44.876 31.6699 45.0616 32.1025 45.0616C32.5356 45.0616 32.9375 44.876 33.2309 44.5669L42.29 34.8433C42.8774 34.2246 42.8311 33.2354 42.2129 32.6636C41.5942 32.0762 40.605 32.1221 40.0332 32.7407L33.6484 39.5889V22.708C33.6484 21.8574 32.9526 21.1621 32.1025 21.1621C31.2524 21.1621 30.5566 21.8574 30.5566 22.708V39.5889L24.1875 32.7407C23.6001 32.1226 22.6259 32.0762 22.0078 32.6636C21.3896 33.251 21.3432 34.2251 21.9306 34.8433L30.9741 44.5669Z" fill="#0353FF"/>
</g>
<defs>
<clipPath id="clip0">
<rect width="64" height="64" fill="white"/>
</clipPath>
</defs>
</svg>
